<?xml version="1.0" encoding="utf-8"?>
<!DOCTYPE svg PUBLIC "-//W3C//DTD SVG 1.1//EN" "http://www.w3.org/Graphics/SVG/1.1/DTD/svg11.dtd">
<svg version="1.1" xmlns="http://www.w3.org/2000/svg" xmlns:xlink="http://www.w3.org/1999/xlink" x="0px" y="0px" width="60px" height="60px" viewBox="0 0 60 60" enable-background="new 0 0 60 60" xml:space="preserve">

<g>
	<g>
		<defs>
			<rect id="SVGID_24_" x="6.2" y="8" width="47.8" height="43.2"/>
		</defs>
		<clipPath id="SVGID_2_">
			<use xlink:href="#SVGID_24_"  overflow="visible"/>
		</clipPath>
		<path clip-path="url(#SVGID_2_)" fill="#739D3F" d="M54,12.6c0,2-1.6,3.7-3.7,3.7c-2,0-3.7-1.6-3.7-3.7c0-2,1.6-3.7,3.7-3.7
			C52.4,8.9,54,10.5,54,12.6"/>
		<path clip-path="url(#SVGID_2_)" fill="#739D3F" d="M54,20.8c0,2-1.6,3.7-3.7,3.7c-2,0-3.7-1.6-3.7-3.7s1.6-3.7,3.7-3.7
			C52.4,17.1,54,18.7,54,20.8"/>
		<path clip-path="url(#SVGID_2_)" fill="#739D3F" d="M54,29.2c0,2-1.6,3.7-3.7,3.7c-2,0-3.7-1.6-3.7-3.7c0-2,1.6-3.7,3.7-3.7
			C52.4,25.5,54,27.2,54,29.2"/>
		<path clip-path="url(#SVGID_2_)" fill="#739D3F" d="M54,37.4c0,2-1.6,3.7-3.7,3.7c-2,0-3.7-1.6-3.7-3.7c0-2,1.6-3.7,3.7-3.7
			C52.4,33.7,54,35.4,54,37.4"/>
	</g>
	<polygon fill="#739D3F" points="29,42 50.5,41.9 50.5,8 29,8 	"/>
	<rect x="32" y="8" fill="#BDD462" width="19" height="34"/>
	<g>
		<defs>
			<rect id="SVGID_26_" x="6.2" y="8" width="47.8" height="43.2"/>
		</defs>
		<clipPath id="SVGID_4_">
			<use xlink:href="#SVGID_26_"  overflow="visible"/>
		</clipPath>
		<path clip-path="url(#SVGID_4_)" fill="#739D3F" d="M37.7,17c0,1.7,1.3,3,3,3c1.7,0,3-1.3,3-3c0-1.7-1.3-3-3-3
			C39.1,13.9,37.7,15.3,37.7,17"/>
		<path clip-path="url(#SVGID_4_)" fill="#739D3F" d="M36.2,24.8h9c0-2.5-2-4.5-4.5-4.5C38.2,20.3,36.2,22.4,36.2,24.8"/>
	</g>
	<polygon fill="#F79421" points="6,45 32,45 32,19 6,19 	"/>
	<g>
		<path fill="#F9CB9B" d="M32,23H6v22l12,0l0.1-10.9h0.6h2.4c-1.3-0.5-2.2-1.7-2.2-3.5c0-2.3,1.6-3.9,3.8-3.9s3.8,1.4,3.8,3.8
			c0,1-0.4,2-0.9,3.1l-0.2,0.4L32,34L32,23z M22.7,28.4c-1.1,0-1.9,0.9-1.9,2.2c0,1.3,0.7,2.2,1.9,2.2c1.1,0,1.9-0.8,1.9-2.2
			C24.6,29.2,23.8,28.4,22.7,28.4 M23.4,34.1C23.4,34.1,23.4,34.1,23.4,34.1L23.4,34.1L23.4,34.1z"/>
	</g>
	<polygon fill="#F79421" points="15,39 15,28.5 12.5,30.7 12.5,28.6 15,26.5 16.8,26.5 16.8,39 	"/>
	<g>
		<path fill="#F79421" d="M22.7,28.4c-1.1,0-1.9,0.9-1.9,2.2c0,1.3,0.7,2.2,1.9,2.2c1.1,0,2-0.8,2-2.2
			C24.6,29.2,23.8,28.4,22.7,28.4 M25.5,33.7l-2.9,5.9h-2l2.7-5.5c-0.3,0.1-0.8,0.2-1.1,0.2c-1.8,0-3.3-1.5-3.3-3.7
			c0-2.3,1.6-3.9,3.8-3.9c2.2,0,3.8,1.4,3.8,3.8C26.4,31.6,26.1,32.6,25.5,33.7"/>
	</g>
	<polygon fill="#A5C34A" points="32,19 32,34 39.9,34 	"/>
	<polygon fill="#0C869D" points="31.7,34.1 31.7,34.1 40.3,34.1 40.3,34.1 	"/>
	<rect x="18" y="34" fill="#1390CF" width="26" height="17"/>
	<polygon fill="#8FCBE9" points="18,34 18,34.6 23.7,40.2 18,49.9 18,51 18.4,51 24.4,40.9 30.9,47.3 31.5,46.7 31.5,46.7 
		31.1,47.1 30.4,46.4 30.8,46 18.6,34 	"/>
	<polygon fill="#8FCBE9" points="43.3,34 30.8,46 30.4,46.4 31.1,47.1 31.5,46.7 37.5,40.9 43.5,51 44,51 44,50.1 38.2,40.3 
		44,34.6 44,34 	"/>
</g>

</svg>
