<?xml version="1.0" encoding="utf-8"?>
<!-- Generator: Adobe Illustrator 18.0.0, SVG Export Plug-In . SVG Version: 6.00 Build 0)  -->
<!DOCTYPE svg PUBLIC "-//W3C//DTD SVG 1.1//EN" "http://www.w3.org/Graphics/SVG/1.1/DTD/svg11.dtd">
<svg version="1.1" xmlns="http://www.w3.org/2000/svg" xmlns:xlink="http://www.w3.org/1999/xlink" x="0px" y="0px" width="16px"
	 height="16px" viewBox="0 0 16 16" enable-background="new 0 0 16 16" xml:space="preserve">
<g id="background">
</g>
<g id="Layer_4">
</g>
<g id="Layer_3">
	<g>
		<path d="M8,15c-3.9,0-7-3.1-7-7c0-3.9,3.1-7,7-7s7,3.1,7,7C15,11.9,11.9,15,8,15z M8,2.3C4.9,2.3,2.3,4.9,2.3,8
			c0,3.1,2.5,5.7,5.7,5.7s5.7-2.5,5.7-5.7C13.7,4.9,11.1,2.3,8,2.3z"/>
		<rect x="7" y="7" width="2" height="5"/>
		<rect x="7" y="4" width="2" height="2"/>
	</g>
</g>
</svg>
