<svg width="129" height="68" fill="none" xmlns="http://www.w3.org/2000/svg"><path d="M35.5 27H30v14.5h5.5V27z" fill="#FF960C"/><path d="M5.5 27H0v14.5h5.5V27z" fill="#00A4FF"/><path d="M15.5 27H10v14.5h5.5V27z" fill="#83C708"/><path d="M25.5 27H20v14.5h5.5V27z" fill="#FA373B"/><path d="M42.46 41.5c-.346 0-.648-.13-.864-.346-.303-.303-.346-.605-.346-1.383 0-.777 0-1.08.346-1.382.216-.216.475-.346.864-.346.605 0 1.037.39 1.167.994h-.389c-.086-.432-.389-.691-.821-.691a.854.854 0 00-.605.259c-.216.216-.26.475-.26 1.166 0 .692.044.95.26 1.167.173.173.346.26.605.26.432 0 .735-.26.821-.692h.346c-.087.605-.519.993-1.124.993zM46.004 41.456v-3.37h.346v3.068h1.729v.302h-2.075zM52.055 41.154a1.107 1.107 0 01-.821.345c-.346 0-.649-.13-.865-.345-.302-.303-.346-.605-.346-1.383 0-.777 0-1.08.346-1.382.216-.216.476-.346.865-.346.345 0 .648.13.82.346.303.302.346.605.346 1.382-.043.778-.043 1.037-.345 1.383zm-.26-2.55a.785.785 0 00-.605-.258.854.854 0 00-.605.259c-.216.216-.259.475-.259 1.166s.043.95.26 1.167c.172.172.345.259.604.259a.854.854 0 00.605-.26c.217-.215.26-.474.26-1.166-.043-.691-.043-.95-.26-1.166zM55.944 41.5c-.691 0-1.166-.476-1.166-1.167v-2.29h.345v2.247c0 .518.303.864.822.864.475 0 .82-.346.82-.864v-2.247h.346v2.29c.044.691-.475 1.166-1.166 1.166zM61.693 41.11c-.216.26-.519.346-.908.346h-1.167v-3.37h1.167c.389 0 .648.13.908.346.302.302.302.82.302 1.34 0 .518 0 .993-.302 1.339zm-.26-2.462a.88.88 0 00-.648-.26h-.735v2.723h.735c.26 0 .475-.044.648-.26.216-.216.216-.648.216-1.123 0-.432 0-.864-.216-1.08zM68.478 41.5c-.346 0-.648-.13-.864-.346-.303-.303-.346-.605-.346-1.383 0-.777 0-1.08.346-1.382.216-.216.475-.346.864-.346.605 0 1.037.389 1.167.994h-.389c-.087-.432-.389-.691-.821-.691a.854.854 0 00-.605.259c-.216.216-.26.475-.26 1.166s.044.95.26 1.167c.173.172.346.259.605.259.432 0 .734-.26.821-.691h.346c-.044.605-.519.993-1.124.993zM73.88 41.154a1.107 1.107 0 01-.82.345c-.347 0-.649-.13-.865-.345-.303-.303-.346-.605-.346-1.383 0-.777 0-1.08.346-1.382.216-.216.475-.346.864-.346.346 0 .648.13.821.346.303.302.346.605.346 1.382 0 .778 0 1.037-.346 1.383zm-.216-2.55a.785.785 0 00-.605-.258.853.853 0 00-.605.259c-.216.216-.26.475-.26 1.166s.044.95.26 1.167c.173.172.346.259.605.259a.854.854 0 00.605-.26c.216-.215.26-.474.26-1.166-.044-.691-.087-.95-.26-1.166zM79.24 41.456v-2.592l-.908 2.03h-.302l-.951-2.03v2.592h-.346v-3.37h.346l1.123 2.42 1.08-2.42h.347v3.37h-.39zM84.685 41.456v-2.592l-.907 2.03h-.303l-.95-2.03v2.592h-.347v-3.37h.346l1.124 2.42 1.08-2.42h.346v3.37h-.389zM88.791 41.5c-.691 0-1.167-.476-1.167-1.167v-2.29h.346v2.247c0 .518.302.864.821.864.475 0 .821-.346.821-.864v-2.247h.346v2.29c0 .691-.519 1.166-1.167 1.166zM94.626 41.456l-1.816-2.722v2.722h-.345v-3.37h.345l1.816 2.722v-2.722h.345v3.37h-.345zM97.564 41.456v-3.37h.346v3.37h-.346zM101.541 41.5c-.346 0-.649-.13-.865-.346-.302-.303-.346-.605-.346-1.383 0-.777 0-1.08.346-1.382.216-.216.476-.346.865-.346.605 0 1.037.389 1.167.994h-.389c-.087-.432-.389-.691-.822-.691a.854.854 0 00-.605.259c-.216.216-.259.475-.259 1.166s.043.95.259 1.167c.173.172.346.259.605.259.433 0 .735-.26.822-.691h.345c-.043.605-.518.993-1.123.993zM107.029 41.456l-.259-.777h-1.469l-.26.777h-.389l1.254-3.37h.302l1.254 3.37h-.433zm-.994-2.851l-.648 1.771h1.253l-.605-1.771zM110.271 38.389v3.067h-.346V38.39h-.994v-.303h2.334v.303h-.994zM113.469 41.456v-3.37h.346v3.37h-.346zM118.31 41.154a1.11 1.11 0 01-.822.345c-.345 0-.648-.13-.864-.345-.302-.303-.346-.605-.346-1.383 0-.777 0-1.08.346-1.382.216-.216.475-.346.864-.346.346 0 .649.13.822.346.302.302.345.605.345 1.382 0 .778 0 1.037-.345 1.383zm-.26-2.55a.784.784 0 00-.605-.258.785.785 0 00-.605.259c-.216.216-.259.475-.259 1.166s.043.95.259 1.167c.173.172.346.259.605.259.26 0 .432-.087.605-.26.216-.215.26-.474.26-1.166 0-.691-.044-.95-.26-1.166zM123.28 41.456l-1.815-2.722v2.722h-.346v-3.37h.346l1.815 2.722v-2.722h.346v3.37h-.346zM127.04 41.5c-.519 0-.821-.13-1.167-.433l.259-.259c.26.26.562.346.908.346.518 0 .821-.216.821-.648a.553.553 0 00-.173-.432c-.086-.087-.216-.13-.432-.173l-.389-.043c-.259-.043-.475-.13-.605-.26-.173-.172-.259-.345-.259-.648 0-.561.432-.95 1.08-.95.432 0 .735.13.994.389l-.216.216c-.216-.216-.432-.303-.778-.303-.475 0-.735.26-.735.648 0 .173.044.303.173.39.087.086.26.129.432.172l.389.043c.303.044.476.087.605.26.173.172.303.388.303.648-.043.648-.475 1.036-1.21 1.036zM42.89 27.085h-1.64v8.457h1.64v-8.457zM51.821 35.543l-3.365-5.221v5.22h-1.64v-8.456h1.467l3.365 5.178v-5.178h1.64v8.457h-1.467zM60.45 28.553v6.99h-1.64v-6.99h-2.243v-1.467h6.084v1.467h-2.2zM65.93 35.543v-8.457h5.566v1.467h-3.883v1.985h3.322v1.467h-3.322v2.028h3.883v1.51H65.93zM79.565 35.543l-1.64-3.366h-1.208v3.366h-1.64v-8.457H78.4c1.726 0 2.761 1.165 2.761 2.589 0 1.208-.733 1.941-1.553 2.2l1.898 3.625h-1.941v.043zm-1.295-6.99h-1.553v2.244h1.553c.734 0 1.208-.475 1.208-1.122 0-.69-.474-1.122-1.208-1.122zM90.826 35.543V30.58l-1.64 3.236h-1.121l-1.597-3.236v4.962h-1.683v-8.457h1.64l2.2 4.574 2.201-4.574h1.64v8.457h-1.64zM96.392 35.543v-8.457h5.566v1.467h-3.926v1.985h3.322v1.467h-3.322v2.028h3.926v1.51h-5.566zM110.803 34.723c-.561.56-1.337.82-2.243.82h-3.064v-8.457h3.064c.862 0 1.682.259 2.243.82.949.949.863 2.114.863 3.365 0 1.251.086 2.503-.863 3.452zm-1.165-5.652c-.302-.346-.647-.518-1.251-.518h-1.251v5.523h1.251c.561 0 .949-.173 1.251-.518.302-.388.345-.992.345-2.287 0-1.294-.043-1.812-.345-2.2zM116.93 27.086h-1.639v8.457h1.639v-8.457zM125.732 35.5l-.518-1.51h-3.02l-.518 1.51h-1.726l3.107-8.457h1.294l3.107 8.457h-1.726zm-1.985-5.955l-1.078 3.064h2.114l-1.036-3.064zM129 28.25a1.25 1.25 0 10-2.499-.001 1.25 1.25 0 002.499.001zm-.252 0a.999.999 0 11-1.999 0 .999.999 0 111.999 0zm-.456.673l-.3-.57a.377.377 0 00.266-.365.419.419 0 00-.435-.415h-.508v1.35h.249v-.535h.172l.276.535h.28zm-.28-.935c0 .114-.089.203-.221.203h-.227v-.407h.227c.132 0 .221.09.221.204z" fill="#1E1F21"/></svg>