<svg width="26" height="32" fill="none" xmlns="http://www.w3.org/2000/svg"><path d="m14.298 31.99 9.129-2.615a3.234 3.234 0 0 0 2.343-3.112V5.737a3.235 3.235 0 0 0-2.343-3.11L14.297.012l2.352 5.65v19.46l-2.351 6.868Z" fill="url(#a)"/><path d="m5.63 23.225-3.04 1.694a1.586 1.586 0 0 1-2.36-1.386V8.763a3.238 3.238 0 0 1 1.642-2.815L11.798.311a3.247 3.247 0 0 1 3.9.524 3.244 3.244 0 0 1 .95 2.297v2.53l-8.068 2.9a2.51 2.51 0 0 0-1.661 2.362v10.108a2.51 2.51 0 0 1-1.289 2.193Z" fill="url(#b)"/><path d="M16.649 25.122v3.745a3.246 3.246 0 0 1-3.248 3.248 3.247 3.247 0 0 1-1.603-.426l-6.11-3.466a1.658 1.658 0 0 1 .82-3.101h10.14Z" fill="url(#c)"/><path d="m5.63 23.225-3.04 1.694a1.586 1.586 0 0 1-2.36-1.386V8.763a3.238 3.238 0 0 1 1.642-2.815L11.798.311a3.247 3.247 0 0 1 3.9.524 3.244 3.244 0 0 1 .95 2.297v2.53l-8.068 2.9a2.51 2.51 0 0 0-1.661 2.362v10.108a2.51 2.51 0 0 1-1.289 2.193Z" fill="url(#d)"/><path d="M16.649 25.122v3.745a3.246 3.246 0 0 1-3.248 3.248 3.247 3.247 0 0 1-1.603-.426l-6.11-3.466a1.658 1.658 0 0 1 .82-3.101h10.14Z" fill="url(#e)"/><defs><linearGradient id="a" x1="20.034" y1="-1.807" x2="20.034" y2="29.746" gradientUnits="userSpaceOnUse"><stop stop-color="#FFB900"/><stop offset=".166" stop-color="#EF8400"/><stop offset=".313" stop-color="#E25C01"/><stop offset=".429" stop-color="#DB4401"/><stop offset=".5" stop-color="#D83B01"/></linearGradient><linearGradient id="b" x1="14.388" y1="-.66" x2="-2.372" y2="23.276" gradientUnits="userSpaceOnUse"><stop stop-color="#800600"/><stop offset=".6" stop-color="#C72127"/><stop offset=".728" stop-color="#C13959"/><stop offset=".847" stop-color="#BC4B81"/><stop offset=".942" stop-color="#B95799"/><stop offset="1" stop-color="#B85BA2"/></linearGradient><linearGradient id="c" x1="5.794" y1="28.618" x2="27.471" y2="28.618" gradientUnits="userSpaceOnUse"><stop stop-color="#F32B44"/><stop offset=".6" stop-color="#A4070A"/></linearGradient><linearGradient id="d" x1="14.73" y1="-1.15" x2="11.181" y2="3.919" gradientUnits="userSpaceOnUse"><stop stop-opacity=".4"/><stop offset="1" stop-opacity="0"/></linearGradient><linearGradient id="e" x1="20.531" y1="29.106" x2="10.819" y2="28.256" gradientUnits="userSpaceOnUse"><stop stop-opacity=".4"/><stop offset="1" stop-opacity="0"/></linearGradient></defs></svg>