<?xml version="1.0" encoding="utf-8"?>
<!DOCTYPE svg PUBLIC "-//W3C//DTD SVG 1.1//EN" "http://www.w3.org/Graphics/SVG/1.1/DTD/svg11.dtd">
<svg version="1.1" xmlns="http://www.w3.org/2000/svg" xmlns:xlink="http://www.w3.org/1999/xlink" x="0px" y="0px" width="60px"
	 height="60px" viewBox="0 0 60 60" enable-background="new 0 0 60 60" xml:space="preserve">

<g id="Layer_3">
	<path fill="#0098DB" d="M9.1,50h8.6c1.2-0.2,2.1-1.2,2.1-2.4V12.5c0-1.4-1.1-2.5-2.5-2.5h-8C8.1,10,7,11.1,7,12.5v35.1
		C7,48.8,7.9,49.8,9.1,50z"/>
	<path fill="#0098DB" d="M22.1,13.1h25.3c0,0,7.1,2.4,7.1,17.2c0,16.1-6.5,17.6-6.5,17.6h-26V13.1z"/>
	<g opacity="0.7">
		<circle fill="#D5EEF4" cx="29.4" cy="31.4" r="2"/>
		<circle fill="#D5EEF4" cx="36.7" cy="31.3" r="2"/>
		<circle fill="#D5EEF4" cx="43.9" cy="31.3" r="2"/>
	</g>
	<g opacity="0.7">
		<circle fill="#D5EEF4" cx="29.3" cy="37.5" r="2"/>
		<circle fill="#D5EEF4" cx="36.6" cy="37.4" r="2"/>
		<circle fill="#D5EEF4" cx="43.9" cy="37.4" r="2"/>
	</g>
	<g opacity="0.7">
		<circle fill="#D5EEF4" cx="29.3" cy="43.4" r="2"/>
		<circle fill="#D5EEF4" cx="36.6" cy="43.4" r="2"/>
		<circle fill="#D5EEF4" cx="43.9" cy="43.4" r="2"/>
	</g>
	<path opacity="0.2" fill="#FFFFFF" d="M19.9,47.6V12.5c0-1.4-1.1-2.5-2.5-2.5h-8C8.2,10,7.2,11,7,12.2c0,15.7,0,28.8,0,35.5
		C7,48.9,8.1,50,9.4,50c2.5,0,5.4,0,8.4,0C19,49.8,19.9,48.8,19.9,47.6z"/>
	<path opacity="0.2" fill="#FFFFFF" d="M36.2,41.2c2.2-1.6,4.2-3.3,6.1-5.1c0.1-0.2,0.2-0.3,0.4-0.4c0.9-0.9,1.7-1.8,2.4-2.7
		c-0.3,0.2-0.7,0.4-1.2,0.4c-1.1,0-2-0.9-2-1.9c0-1.1,0.9-1.9,2-1.9c1.1,0,2,0.9,2,1.9c0,0.3-0.1,0.5-0.1,0.7
		c3.3-4.4,5.5-9.2,6.2-14.4c-2-3.8-4.5-4.7-4.5-4.7H22.1v34.8h1.2c4.2-1.7,8.2-3.5,11.6-5.8C35.2,41.6,35.7,41.3,36.2,41.2z
		 M36.6,39.1c-1.1,0-2-0.9-2-1.9c0-1.1,0.9-1.9,2-1.9c1.1,0,2,0.9,2,1.9C38.6,38.3,37.7,39.1,36.6,39.1z M36.6,33.3
		c-1.1,0-2-0.9-2-1.9c0-1.1,0.9-1.9,2-1.9c1.1,0,2,0.9,2,1.9C38.6,32.5,37.7,33.3,36.6,33.3z M29.3,45c-1.1,0-2-0.9-2-1.9
		c0-1.1,0.9-1.9,2-1.9c1.1,0,2,0.9,2,1.9C31.3,44.1,30.4,45,29.3,45z M29.3,39.2c-1.1,0-2-0.9-2-1.9c0-1.1,0.9-1.9,2-1.9
		c1.1,0,2,0.9,2,1.9C31.3,38.4,30.4,39.2,29.3,39.2z M29.3,33.4c-1.1,0-2-0.9-2-1.9c0-1.1,0.9-1.9,2-1.9c1.1,0,2,0.9,2,1.9
		C31.3,32.6,30.4,33.4,29.3,33.4z"/>
	<rect x="26" y="17" fill="#9CD4EA" width="21" height="10"/>
</g>
<g id="colomns" display="none">
	<rect x="-13" y="-807" display="inline" opacity="0.2" fill="#98BC33" width="60" height="1199"/>
</g>
<g id="Grids" display="none">
	
		<rect x="-33.5" y="-6.5" display="inline" opacity="0.56" fill="none" stroke="#B5B5B5" stroke-miterlimit="10" width="2021" height="8"/>
	
		<rect x="-33.5" y="9.5" display="inline" opacity="0.56" fill="none" stroke="#B5B5B5" stroke-miterlimit="10" width="2021" height="8"/>
	
		<rect x="-33.5" y="25.5" display="inline" opacity="0.56" fill="none" stroke="#B5B5B5" stroke-miterlimit="10" width="2021" height="8"/>
	
		<rect x="-33.5" y="41.5" display="inline" opacity="0.56" fill="none" stroke="#B5B5B5" stroke-miterlimit="10" width="2021" height="8"/>
	
		<rect x="-33.5" y="57.5" display="inline" opacity="0.56" fill="none" stroke="#B5B5B5" stroke-miterlimit="10" width="2021" height="8"/>
</g>
</svg>
